<?xml version="1.0" encoding="UTF-8"?>
<svg id="Camada_1" xmlns="http://www.w3.org/2000/svg" version="1.1" viewBox="0 0 831.8 558.8">
  <!-- Generator: Adobe Illustrator 29.6.0, SVG Export Plug-In . SVG Version: 2.1.1 Build 207)  -->
  <defs>
    <style>
      .st0 {
        fill: none;
        stroke: #fff;
        stroke-linecap: round;
        stroke-linejoin: round;
        stroke-width: 10px;
      }
    </style>
  </defs>
  <path class="st0" d="M254.5,200.8v163.8h99.2v-75c.7,0,1.2,0,1.8,0,34.6,0,69.2,0,103.8,0,1.8,0,2.8.4,3.8,2.2,12,21.8,23.6,43.7,35.4,65.6,12.9,24,25.7,48,38.6,71.9,9.8,18.2,19.6,36.4,29.4,54.6,7.5,13.9,15,27.8,22.3,41.7.6,1.2,1.2,1.5,2.5,1.5,8.9,0,17.8,0,26.8-.3,14.8-.6,29.7.2,44.5-.3,12.8-.4,25.7-.3,38.5-.4.5,0,1,0,1.7-.4-2.3-4.2-4.9-8.2-7.4-12.4-9.6-15.8-19.2-31.7-28.8-47.5-8.1-13.3-16.1-26.7-24.2-40-7.9-13-15.8-26-23.7-39-8-13.3-16.1-26.6-24.1-39.9-12.4-20.5-24.9-41-37.2-61.5-1.4-2.4-2.7-4.9-4.5-7h-.4c3.4-3.3,7-6.1,10.4-9.2,10.7-10.1,19.7-21.6,26.8-34.5,5.2-9.4,9.1-19.3,12.2-29.5,1.9-6.4,3.3-12.9,4.3-19.5.9-6.1,1.5-12.3,2.1-18.5.8-9.4.4-18.9.3-28.3,0-5.8-.8-11.7-1.4-17.5-1-8.9-3.9-17.4-7-25.8-5.8-16.1-13.9-30.9-25-44-10.5-12.3-23.2-22-37.9-29-10-4.8-20.4-8.1-31.2-10.6-8.3-1.9-16.6-2.5-25-2.5-125.7,0-251.3,0-377,0h-2.8v87.2c1.1.5,1.9.3,2.8.3,117.7,0,235.3,0,353,0,6.5,0,12.8,1,19,2.6,8.6,2.2,16.5,5.8,23.3,11.7,6.8,5.9,11,13.5,13.4,22,1.6,5.8,2.5,11.7,2,17.7-1.3,14.8-5.6,28.4-17.8,38.2-6,4.9-13.1,7.7-20.7,9.3-4.3.9-8.6,1.2-13,1.6-5.1.5-10.2.3-15.3.3-62.3,0-130.7,0-193,0"/>
</svg>