<?xml version="1.0" encoding="UTF-8"?>
<svg id="Camada_1" data-name="Camada 1" xmlns="http://www.w3.org/2000/svg" viewBox="0 0 145.36 145.36">
  <defs>
    <style>
      .cls-1 {
        fill: #2e3192;
        fill-rule: evenodd;
        stroke: #2e3192;
        stroke-miterlimit: 22.93;
        stroke-width: .57px;
      }
    </style>
  </defs>
  <path class="cls-1" d="M4.74.28h135.88c2.86.26,4.15,1.89,4.44,4.44v135.9c-.35,2.66-1.92,4.06-4.44,4.45h-13.67s-27.12-52.14-27.12-52.14c9.51-7.5,14.09-18.94,11.81-35.86-3.85-14.71-12.86-21.75-25.55-23.3H.28V4.74C.53,2.2,1.79.52,4.74.28Z"/>
  <path class="cls-1" d="M105.16,145.07H4.74c-2.67-.31-4.27-1.67-4.46-4.46V53.07h79.39c7.95.82,11.57,4.86,11.86,11.38-.49,7.92-4.89,11.13-11.86,11.38h-45.61v36.17h21.89v-16.5h23.87l25.34,49.56Z"/>
</svg>