<?xml version="1.0" encoding="UTF-8"?>
<svg id="Camada_1" data-name="Camada 1" xmlns="http://www.w3.org/2000/svg" viewBox="0 0 60 60">
  <defs>
    <style>
      .cls-1 {
        fill: #113b63;
      }
    </style>
  </defs>
  <path class="cls-1" d="M26.84,48.58h5.65v-3.09c0-.72,1.18-2.47,2.05-2.54l18.07.09c.41.25.76.53,1.06.88,1.98,2.31,2.06,7.66,1.32,10.5s-1.43,3.83-3.53,3.88l-43.69-.09c-2.7-.56-3.32-6.42-3.16-8.65s.92-6.39,3.42-6.63c5.65-.53,12.1.42,17.84,0,.35-.12.97.58.97.79v4.85ZM7.91,44.72c-1.16.39-1.59,5.47-1.54,6.6.11,2.19,1.69,8.29,3.12,2.95,1.43-5.35.55-5.13,0-7.3s-.71-2.54-1.59-2.24ZM25.08,44.7h-14.47c1.32,3.86,1.55,8.06-.18,11.82h41.37c1.15,0,1.8-3.97,1.85-4.85.09-1.34-.18-6.49-1.71-6.93l-16.9-.04c-1.96.37.69,5.2-2.29,5.47-1.54.14-5.05.18-6.55,0s-1.15-.35-1.15-.79v-4.68h.02Z"/>
  <path class="cls-1" d="M39.16,15.02c-.19.21-.79.11-.85.34-.32,1.16.26,3.9,0,5.28s-1.13.53-1.24.62.04,2.73,0,3.26c-.14,1.69-.74,3.19-2.12,4.23-1.38,1.04-1.52.74-1.57.81-.41.64.51,3.05-.48,4.2s-1.94.64-2.01.72c-.26.25.21,6.4,0,7.32-.35,1.16-1.57.95-1.75-.18s.25-6.9,0-7.13-.74,0-1.06-.09c-1.96-.55-1.29-3.32-1.43-4.83-1.75-.55-3.25-2.38-3.49-4.18s.14-3.99,0-4.13-1.22.21-1.41-.79.32-3.95,0-5.1-.83-.11-.9-.41l.04-12.65c.14-.41.74-.44,1.11-.48,5.12-.46,10.89.37,16.07,0,.99,0,1.24.42,1.32,1.32.25,2.77.21,7.99,0,10.78-.02.25-.09.95-.23,1.09l-.02-.02ZM37.6,3.59h-15.17v10.06h15.17V3.59ZM36.55,15.23h-13.06v4.23h13.06v-4.23ZM35.31,21.23h-10.59v3.79c0,.07.44,1.11.51,1.25.44.81,1.64,1.73,2.56,1.85,1.71.21,4.87.21,6.25-.83s1.25-1.61,1.25-1.91v-4.15l.02-.02ZM31.61,29.88h-3.18v2.56s.25.26.26.26h2.91v-2.82Z"/>
  <path class="cls-1" d="M24.09,35.63c.74.72,3.19,2.79,3.49,3.48.44,1.01-.37,1.43-1.27,1.09l-6.99-6.78c-.74-.78-.3-1.92.79-1.69,1.43,1.18,2.65,2.61,3.97,3.9h0Z"/>
  <path class="cls-1" d="M32.68,40.27c-.18-.11-.34-1.09-.04-1.31,1.18-.85,6.72-7.2,7.53-7.27s1.29.9.78,1.46l-6.88,6.88c-.21.3-1.16.37-1.39.23Z"/>
  <path class="cls-1" d="M40.39,38.91c1.09-.21,1.45.78.85,1.57l-4.29,1.71c-1.06.35-1.82-.72-.92-1.46s3.95-1.75,4.36-1.82h0Z"/>
  <path class="cls-1" d="M24.34,40.85c.42.69-.16,1.48-1.08,1.34s-3.78-1.39-4.18-1.66c-.97-.62-.56-1.83.55-1.62s4.55,1.73,4.69,1.94h.02Z"/>
</svg>