<?xml version="1.0" encoding="UTF-8"?>
<svg id="Camada_1" data-name="Camada 1" xmlns="http://www.w3.org/2000/svg" viewBox="0 0 60 60">
  <defs>
    <style>
      .cls-1 {
        fill: none;
        stroke: #113b63;
        stroke-miterlimit: 10;
        stroke-width: 2px;
      }
    </style>
  </defs>
  <path class="cls-1" d="M5.55,3h3.45c1.02,0,1.85.83,1.85,1.85v41.55H3.7V4.85c0-1.02.83-1.85,1.85-1.85Z"/>
  <path class="cls-1" d="M50.55,3h3.45c1.02,0,1.85.83,1.85,1.85v41.55h-7.15V4.85c0-1.02.83-1.85,1.85-1.85Z"/>
  <rect class="cls-1" x="14.2" y="7.56" width="7.15" height="13.85" transform="translate(3.29 32.27) rotate(-90)"/>
  <rect class="cls-1" x="38.2" y="7.56" width="7.15" height="13.85" transform="translate(27.29 56.27) rotate(-90)"/>
  <path class="cls-1" d="M26.55,3h6.45c1.02,0,1.85.83,1.85,1.85v20.87h-10.15V4.85c0-1.02.83-1.85,1.85-1.85Z"/>
  <rect class="cls-1" x="24.96" y="23.43" width="10.15" height="56.11" rx="1.5" ry="1.5" transform="translate(-21.45 81.51) rotate(-90)"/>
  <rect class="cls-1" x="27.19" y="26.23" width="5.11" height="6.89"/>
  <rect class="cls-1" x="28.72" y="33.87" width="2.68" height="5.11"/>
  <line class="cls-1" x1="21.32" y1="35.81" x2="29.89" y2="43.38"/>
  <line class="cls-1" x1="37.26" y1="35.31" x2="29.68" y2="43.88"/>
  <line class="cls-1" x1="39.41" y1="44.09" x2="19.97" y2="44.09"/>
  <line class="cls-1" x1="20.17" y1="38.52" x2="30.28" y2="43.87"/>
  <line class="cls-1" x1="39.3" y1="37.71" x2="29.69" y2="43.93"/>
  <line class="cls-1" x1="46.41" y1="43.09" x2="13.97" y2="43.09"/>
</svg>