<?xml version="1.0" encoding="UTF-8"?>
<svg id="Camada_1" data-name="Camada 1" xmlns="http://www.w3.org/2000/svg" viewBox="0 0 60 60">
  <defs>
    <style>
      .cls-1 {
        fill: #113b63;
      }
    </style>
  </defs>
  <path class="cls-1" d="M12.09,7.28h29.08v-1.14c0-.31.71-1,1.07-.98h7.92c.54.05,1.01.43,1.2.93s.16.57.16.65v8.78h2.75c.38,0,1.06.62,1.06.99v8.67c0,.15,1.04.02,1.21.03.79.05,1.46.25,1.71,1.09v6.44c-.11.64-.62,1.09-1.26,1.15-1.77.15-3.78-.12-5.58,0-.81-.16-1.15-.71-1.22-1.5-.12-1.46-.12-4.12,0-5.59.15-1.9,1.76-1.51,3.16-1.58v-7.71h-1.8c-.05,0-.08.09-.08.15,0,.88.28,2.48-.36,3.16s-.76.51-.95.51h-1.06v18.66h1.36c.44,0,1.12.9,1.06,1.36v12.12c-.02.71-.51,1.33-1.21,1.43-2.3-.13-4.78.17-7.05,0s-1.34-1.83-1.67-2.96l-.16-.12H12.65c-.59.82-.21,2.7-1.38,3.03-2.34-.05-4.97.24-7.3.05-.73-.06-1.17-.48-1.29-1.21v-12.34c-.07-.46.64-1.36,1.06-1.36h1.65v-14.65c0-.14-.56-.09-.76-.19s-.48-.46-.53-.65c-.21-.83.09-2.26-.04-3.16h-1.06s-.45-.18-.51-.22c-.48-.27-.69-.76-.77-1.29V6.73c.04-.83.5-1.49,1.36-1.58,2.47-.25,5.34.18,7.85,0,.99.22,1.31,1.2,1.15,2.12h.01ZM10.04,7.21H3.79v12.05h6.24V7.21ZM49.4,7.21h-6.24v12.05h6.24V7.21ZM41.18,9.41H12.17v10.61s-.19.51-.23.58c-.32.54-1.01.77-1.61.71v1.84h32.61v-1.84c-.51.05-1.09-.12-1.42-.52s-.34-.54-.34-.62v-10.76ZM6.14,21.31v1.84h2.2v-1.84h-2.2ZM47.05,21.31h-2.2v3.12c0,.29-.61.73-.92.77-.8.1-1.76-.02-2.58,0-2.4.04-4.83,0-7.26,0-2.43,0-1.74.08-2.61,0v3.12c0,.1-.24.52-.33.62l-6.65,6.61h7.45c.38,0,1.21.82,1.21,1.21v3.19h13.88v-18.66ZM17.46,25.2H7.47v14.76h12.05l-9.69-9.73c-.51-.65-.15-1.54.66-1.7.44-.08.79.19,1.1.45,1.55,1.29,3.14,3.21,4.59,4.67s3.73,3.77,5.66,5.58h9.36v-1.54h-8.48c-.23,0-1.13-.84-1.33-1.06-.69-.73-.78-.87-.84-1.92s-.04-2.94,0-4.27.07-.31.07-.48h-1.87c-.39,0-1.29-.89-1.29-1.29v-3.49ZM29.43,25.19h-9.99v2.72h9.99v-2.72ZM52.27,27.26v4.63h3.97v-4.63h-3.97ZM27.08,29.98h-4.41v4.41l4.41-4.41ZM49.4,42.02H4.75v10.87h5.51c.26-.95.13-2.82,1.32-3.12l30.8-.03c1.45.35,1.03,2.12,1.55,3.15h5.47v-10.87Z"/>
</svg>