<?xml version="1.0" encoding="UTF-8"?>
<svg id="Camada_1" xmlns="http://www.w3.org/2000/svg" version="1.1" viewBox="0 0 60 54">
  <!-- Generator: Adobe Illustrator 29.4.0, SVG Export Plug-In . SVG Version: 2.1.0 Build 152)  -->
  <defs>
    <style>
      .st0 {
        fill: none;
        stroke: #000;
        stroke-miterlimit: 10;
      }
    </style>
  </defs>
  <path class="st0" d="M5.6,0h3.4c1,0,1.9.8,1.9,1.9v41.6H3.7V1.9c0-1,.8-1.9,1.9-1.9Z"/>
  <path class="st0" d="M50.6,0h3.4c1,0,1.9.8,1.9,1.9v41.6h-7.1V1.9c0-1,.8-1.9,1.9-1.9Z"/>
  <rect class="st0" x="14.2" y="4.6" width="7.1" height="13.9" transform="translate(6.3 29.3) rotate(-90)"/>
  <rect class="st0" x="38.2" y="4.6" width="7.1" height="13.9" transform="translate(30.3 53.3) rotate(-90)"/>
  <path class="st0" d="M26.6,0h6.4c1,0,1.9.8,1.9,1.9v20.9h-10.1V1.9c0-1,.8-1.9,1.9-1.9Z"/>
  <rect class="st0" x="25" y="20.4" width="10.1" height="56.1" rx="1.5" ry="1.5" transform="translate(-18.4 78.5) rotate(-90)"/>
  <rect class="st0" x="27.2" y="23.2" width="5.1" height="6.9"/>
  <rect class="st0" x="28.7" y="30.9" width="2.7" height="5.1"/>
  <path class="st0" d="M21.3,32.8"/>
  <path class="st0" d="M29.8,38.6"/>
  <path class="st0" d="M29.8,38.6"/>
  <path class="st0" d="M16.1,33.4"/>
  <path class="st0" d="M17,36.6"/>
  <path class="st0" d="M46.3,39.2"/>
  <path class="st0" d="M13.9,39.2"/>
  <path class="st0" d="M40.1,33.4"/>
  <path class="st0" d="M30.3,41.3"/>
  <path class="st0" d="M42.8,36"/>
  <path class="st0" d="M22.9,42.3"/>
  <path class="st0" d="M40,41.3"/>
  <path class="st0" d="M26.9,37.2"/>
  <line class="st0" x1="21.3" y1="32.8" x2="29.9" y2="40.4"/>
  <line class="st0" x1="37.3" y1="32.3" x2="29.7" y2="40.9"/>
  <line class="st0" x1="39.4" y1="41.1" x2="20" y2="41.1"/>
  <line class="st0" x1="20.2" y1="35.5" x2="30.3" y2="40.9"/>
  <line class="st0" x1="39.3" y1="34.7" x2="29.7" y2="40.9"/>
  <line class="st0" x1="46.4" y1="40.1" x2="14" y2="40.1"/>
</svg>