<?xml version="1.0" encoding="UTF-8"?>
<svg id="Camada_1" xmlns="http://www.w3.org/2000/svg" version="1.1" viewBox="0 0 500 500">
  <!-- Generator: Adobe Illustrator 29.4.0, SVG Export Plug-In . SVG Version: 2.1.0 Build 152)  -->
  <path d="M232,351h32v-17.5c0-4.1,6.7-14,11.6-14.4l102.4.5c2.3,1.4,4.3,3,6,5,11.2,13.1,11.7,43.4,7.5,59.5s-8.1,21.7-20,22l-247.6-.5c-15.3-3.2-18.8-36.4-17.9-49s5.2-36.2,19.4-37.6c32-3,68.6,2.4,101.1,0,2-.7,5.5,3.3,5.5,4.5v27.5ZM124.7,329.1c-6.6,2.2-9,31-8.7,37.4.6,12.4,9.6,47,17.7,16.7s3.1-29.1,0-41.4-4-14.4-9-12.7ZM222,329h-82c7.5,21.9,8.8,45.7-1,67h234.5c6.5,0,10.2-22.5,10.5-27.5.5-7.6-1-36.8-9.7-39.3l-95.8-.2c-11.1,2.1,3.9,29.5-13,31-8.7.8-28.6,1-37.1,0s-6.5-2-6.5-4.5v-26.5Z"/>
  <path d="M301.8,160.8c-1.1,1.2-4.5.6-4.8,1.9-1.8,6.6,1.5,22.1,0,29.9s-6.4,3-7,3.5.2,15.5,0,18.5c-.8,9.6-4.2,18.1-12,24s-8.6,4.2-8.9,4.6c-2.3,3.6,2.9,17.3-2.7,23.8s-11,3.6-11.4,4.1c-1.5,1.4,1.2,36.3,0,41.5-2,6.6-8.9,5.4-9.9-1s1.4-39.1,0-40.4-4.2,0-6-.5c-11.1-3.1-7.3-18.8-8.1-27.4-9.9-3.1-18.4-13.5-19.8-23.7s.8-22.6,0-23.4-6.9,1.2-8-4.5,1.8-22.4,0-28.9-4.7-.6-5.1-2.3l.2-71.7c.8-2.3,4.2-2.5,6.3-2.7,29-2.6,61.7,2.1,91.1,0,5.6,0,7,2.4,7.5,7.5,1.4,15.7,1.2,45.3,0,61.1-.1,1.4-.5,5.4-1.3,6.2ZM293,96h-86v57h86v-57ZM287,162h-74v24h74v-24ZM280,196h-60v21.5c0,.4,2.5,6.3,2.9,7.1,2.5,4.6,9.3,9.8,14.5,10.5,9.7,1.2,27.6,1.2,35.4-4.7s7.1-9.1,7.1-10.8v-23.5ZM259,245h-18v14.5c0,.1,1.4,1.5,1.5,1.5h16.5v-16Z"/>
  <path d="M216.4,277.6c4.2,4.1,18.1,15.8,19.8,19.7,2.5,5.7-2.1,8.1-7.2,6.2l-39.6-38.4c-4.2-4.4-1.7-10.9,4.5-9.6,8.1,6.7,15,14.8,22.5,22.1Z"/>
  <path d="M265.1,303.9c-1-.6-1.9-6.2-.2-7.4,6.7-4.8,38.1-40.8,42.7-41.2s7.3,5.1,4.4,8.3l-39,39c-1.2,1.7-6.6,2.1-7.9,1.3Z"/>
  <path d="M308.8,296.2c6.2-1.2,8.2,4.4,4.8,8.9l-24.3,9.7c-6,2-10.3-4.1-5.2-8.3s22.4-9.9,24.7-10.3Z"/>
  <path d="M217.8,307.2c2.4,3.9-.9,8.4-6.1,7.6s-21.4-7.9-23.7-9.4c-5.5-3.5-3.2-10.4,3.1-9.2s25.8,9.8,26.6,11Z"/>
</svg>