<svg xmlns="http://www.w3.org/2000/svg" viewBox="0 0 1024 1024"><path d="M311 208h396v-15.5c0-4.2 9.7-13.6 14.6-13.4h107.9c7.3.7 13.8 5.8 16.3 12.6s2.2 7.8 2.2 8.8V320h37.5c5.2 0 14.5 8.4 14.5 13.5v118c0 2.1 14.1.3 16.5.4 10.8.7 19.9 3.4 23.3 14.8v87.7c-1.5 8.7-8.4 14.8-17.2 15.6-24.1 2.1-51.5-1.6-76 0-11-2.2-15.7-9.6-16.6-20.4-1.7-19.9-1.6-56.1 0-76.1 2-25.9 23.9-20.6 43-21.5V347h-24.5c-.7 0-1.1 1.2-1.1 2 0 12 3.8 33.7-4.9 43s-10.3 7-13 7H815v254h18.5c6 0 15.2 12.2 14.5 18.5v165c-.3 9.6-6.9 18.1-16.5 19.5-31.3-1.8-65.1 2.3-96 0s-18.3-24.9-22.7-40.3l-2.2-1.7h-392c-8 11.2-2.8 36.7-18.8 41.3-31.9-.7-67.7 3.2-99.4.7-10-.8-15.9-6.6-17.5-16.5v-168c-.9-6.3 8.7-18.5 14.5-18.5h22.5V453.5c0-1.9-7.6-1.2-10.4-2.6s-6.5-6.3-7.2-8.8c-2.9-11.3 1.2-30.8-.5-43h-14.5c-.4 0-6.1-2.4-7-3-6.5-3.7-9.4-10.4-10.5-17.5v-178c.6-11.3 6.8-20.3 18.5-21.5 33.6-3.4 72.7 2.4 106.9 0 13.5 3 17.8 16.4 15.6 28.9zm-28-1h-85v164h85zm536 0h-85v164h85zm-112 30H312v144.5c0 .4-2.6 7-3.1 7.9-4.3 7.3-13.7 10.5-21.9 9.6v25h444v-25c-6.9.7-14.9-1.7-19.4-7.1s-4.6-7.3-4.6-8.4zM230 399v25h30v-25zm557 0h-30v42.5c0 4-8.3 10-12.5 10.5-10.9 1.3-24-.3-35.1 0-32.7.6-65.8-.1-98.9 0s-23.7 1.1-35.5 0v42.5c0 1.3-3.3 7.1-4.5 8.5L480 593h101.5c5.2 0 16.5 11.2 16.5 16.5V653h189zm-403 53H248v201h164L280 520.5c-6.9-8.9-2-21 9-23.1 6-1.1 10.8 2.6 15 6.1 21.1 17.5 42.7 43.7 62.5 63.6s50.8 51.3 77 76H571v-21H455.5c-3.1 0-15.4-11.5-18.1-14.4-9.4-10-10.6-11.9-11.4-26.1s-.6-40 0-58.1 1-4.2 1-6.5h-25.5c-5.3 0-17.5-12.1-17.5-17.5zm163-.1H411V489h136zM858 480v63h54v-63zm-343 37h-60v60zm304 164H211v148h75c3.6-12.9 1.8-38.4 18-42.5l419.4-.4c19.8 4.7 14 28.8 21.1 42.9H819z"/></svg>