<?xml version="1.0" encoding="UTF-8"?>
<svg id="Camada_1" xmlns="http://www.w3.org/2000/svg" version="1.1" viewBox="0 0 831.75 558.75">
  <!-- Generator: Adobe Illustrator 29.5.1, SVG Export Plug-In . SVG Version: 2.1.0 Build 141)  -->
  <defs>
    <style>
      .st0 {
        fill: none;
        stroke: #000;
        stroke-linecap: round;
        stroke-linejoin: round;
        stroke-width: 3px;
      }
    </style>
  </defs>
  <path class="st0" d="M254.5,200.75v163.75h99.25v-74.99c.72-.02,1.24-.01,1.75-.01,34.58,0,69.17,0,103.75-.02,1.81,0,2.83.43,3.82,2.23,11.98,21.76,23.58,43.72,35.35,65.58,12.9,23.96,25.74,47.96,38.61,71.94,9.77,18.2,19.56,36.39,29.39,54.56,7.51,13.87,14.98,27.76,22.29,41.73.61,1.17,1.23,1.53,2.54,1.52,8.92-.09,17.83.06,26.75-.28,14.83-.57,29.68.16,44.5-.33,12.84-.43,25.67-.32,38.5-.42.51,0,1.04.09,1.65-.37-2.31-4.2-4.92-8.25-7.41-12.37-9.57-15.84-19.15-31.68-28.75-47.5-8.09-13.33-16.11-26.7-24.25-40-7.94-12.99-15.82-26.01-23.69-39.04-8.04-13.31-16.06-26.63-24.09-39.94-12.38-20.52-24.87-40.98-37.24-61.5-1.43-2.37-2.71-4.85-4.47-7.02l-.37-.1c3.37-3.16,7.04-5.97,10.39-9.15,10.71-10.13,19.67-21.55,26.78-34.49,5.17-9.42,9.13-19.29,12.15-29.54,1.88-6.38,3.32-12.88,4.32-19.48.93-6.14,1.54-12.3,2.06-18.5.79-9.43.42-18.85.3-28.26-.08-5.82-.8-11.68-1.42-17.5-.95-8.94-3.93-17.37-6.98-25.75-5.85-16.07-13.91-30.95-25.04-43.96-10.54-12.34-23.23-22.05-37.94-29.05-10-4.76-20.44-8.1-31.24-10.56-8.27-1.88-16.56-2.48-25.02-2.48-125.67.06-251.33.04-377,.04h-2.75v87.22c1.05.47,1.92.27,2.75.27,117.67.01,235.33.03,353-.04,6.49,0,12.78.97,18.99,2.57,8.58,2.22,16.49,5.82,23.27,11.71,6.84,5.93,11.05,13.46,13.44,22.03,1.61,5.77,2.54,11.73,2.01,17.73-1.33,14.84-5.65,28.42-17.75,38.21-6.03,4.88-13.14,7.7-20.72,9.28-4.28.89-8.63,1.21-12.99,1.64-5.11.5-10.18.34-15.26.34-62.33.05-130.67.03-193,.03"/>
</svg>